<svg id="906596f6-35f0-4422-8979-f436ad261b95-donesday" data-name="Donesday-layer" xmlns="http://www.w3.org/2000/svg" viewBox="0 0 371.17 514.08">
  <title>Donesday</title>
  <g>
    <g>
      <path d="M133.12,374.93a40.43,40.43,0,0,1-.65,6.38q-0.76,5.08-1,6.38Q131.18,391,130.42,410q-0.65,17.3-.65,19.13,0,11.57,2.05,16.32a2.24,2.24,0,0,1-1.94,1.19,4.08,4.08,0,0,1-2.43-1.08,4.65,4.65,0,0,1-1.67-2.16,50.25,50.25,0,0,0-.65-6.58q-6.37,8.1-12.2,8.09a12.46,12.46,0,0,1-10.79-5.29q-3.24-4.53-3.24-12a57.53,57.53,0,0,1,3.35-18.78q4.31-12.73,11.44-12.74a10.51,10.51,0,0,1,6.15,2.27q0.65,0.43,5.07,4.53,1.08-7.36,1.08-32.27a2.77,2.77,0,0,1,2.05-.76A5.17,5.17,0,0,1,133.12,374.93ZM125,414.86a16.89,16.89,0,0,0-2.16-8.53q-2.59-4.53-7-4.53-5.4,0-8.63,11a52.69,52.69,0,0,0-2.59,15.65,20.33,20.33,0,0,0,1.51,8.2q2,4.53,6.15,4.53,6.69,0,10.15-10.36A48.28,48.28,0,0,0,125,414.86Z" transform="translate(-64.41 -88.7)" style="fill: #231f20;stroke: #000;stroke-miterlimit: 10"/>
      <path d="M172.73,422.31a31.13,31.13,0,0,1-4.1,16.19q-4.86,8.31-13.49,8.31T142.08,440q-3.56-5.61-3.56-14.9a42.46,42.46,0,0,1,4.1-18q5.18-10.9,13.17-10.9,2,0,5.83,2.37Q172.73,405.47,172.73,422.31Zm-5.18-.11a39.15,39.15,0,0,0-1.84-12.41q-2.7-7.66-8.31-7.66-6.48,0-10.15,8.53a35.66,35.66,0,0,0-2.81,14.14,29.68,29.68,0,0,0,1.94,11.44q2.81,6.37,8.74,6.37,6.48,0,9.82-7.34A31.33,31.33,0,0,0,167.55,422.2Z" transform="translate(-64.41 -88.7)" style="fill: #231f20;stroke: #000;stroke-miterlimit: 10"/>
      <path d="M212.35,444.11a1.89,1.89,0,0,1-1.73,1.19,8.8,8.8,0,0,1-3.67-1.51v-6.58q0-35.84-8.92-35.84-2.8,0-6,4.1-8.17,10.15-8.16,25.58a43.7,43.7,0,0,0,.59,6,43.87,43.87,0,0,1,.59,6q0,1.62-2.19,1.62-4.18,0-4.18-6.8v-24.5q0-1,.11-2.81t0.11-2.81a32.27,32.27,0,0,0-.38-4.1,31.75,31.75,0,0,1-.38-4,3,3,0,0,1,1.35-2,3.89,3.89,0,0,1,2.1-1.13,3.34,3.34,0,0,1,2.59,1.51q-0.32,7-.32,8.2,0,1.62.11,3.13,1-.32,2.59-3.56a26,26,0,0,1,3.45-5.61,7.67,7.67,0,0,1,5.94-3,12.41,12.41,0,0,1,3.89,1,14.44,14.44,0,0,1,8.31,7.12q4.21,8.53,4.21,22.56v16.3Z" transform="translate(-64.41 -88.7)" style="fill: #231f20;stroke: #000;stroke-miterlimit: 10"/>
      <path d="M249.9,432.89q0,4.75-6.37,8.53a21,21,0,0,1-10.79,3.45q-14.47,0-14.46-18.35a58.18,58.18,0,0,1,2.91-17.38q3.89-12.09,9.93-12.09,5.18,0,11.33,5.24t6.15,10.42a15.37,15.37,0,0,1-5.4,11.66,17.55,17.55,0,0,1-12.2,5,8.48,8.48,0,0,1-2.75-1.08,8.25,8.25,0,0,0-2.86-1.08q-1.4,0-1.4.86,0,12.41,8.2,12.41a12.28,12.28,0,0,0,7.77-2.81,25.52,25.52,0,0,0,4.75-5.07q2-2.7,2.7-2.7Q249.9,429.86,249.9,432.89ZM242.46,413A12.66,12.66,0,0,0,240.3,406a6.57,6.57,0,0,0-5.72-3.29q-4.32,0-7,5.4a20.75,20.75,0,0,0-2.27,9.39,7.3,7.3,0,0,0,2,5.24,6.75,6.75,0,0,0,5.13,2.11,8.91,8.91,0,0,0,7.34-3.78A12.61,12.61,0,0,0,242.46,413Z" transform="translate(-64.41 -88.7)" style="fill: #231f20;stroke: #000;stroke-miterlimit: 10"/>
      <path d="M286.17,437.29q0,3.79-5.72,6.38a23.07,23.07,0,0,1-9.17,2.06,19.47,19.47,0,0,1-6.69-1.41,33.53,33.53,0,0,1-6.59-4.57q-5-4-5-5.55,0-3.37,4-3h0.65q0.22,3.27,6.91,7.09,6,3.49,9.71,3.49,4.75,0,4.75-3.25,0-1.95-5.83-5.41-8-4.65-10.9-7.46a17.85,17.85,0,0,1-5.94-13.2,21.22,21.22,0,0,1,2.91-10.71q3.34-6.06,8.42-6.06,3.67,0,8.85,3.4t6,6.85a24.06,24.06,0,0,1,.86,6.8,31.7,31.7,0,0,1-1.51,9.17,3.59,3.59,0,0,1-2.27.76,7.86,7.86,0,0,1-2.37-.59q-1.62-.59-1.62-1.24,0,0.43,1.19-2.37,0.86-1.83.86-6.69,0-11.55-7.23-11.55-3.78,0-6,5.08a19.33,19.33,0,0,0-1.94,8.33q0,5.3,6.15,10.28A130.46,130.46,0,0,0,280,431.34Q286.17,435.13,286.17,437.29Z" transform="translate(-64.41 -88.7)" style="fill: #231f20;stroke: #000;stroke-miterlimit: 10"/>
      <path d="M325.78,374.93a40.45,40.45,0,0,1-.65,6.38q-0.76,5.08-1,6.38Q323.84,391,323.08,410q-0.65,17.3-.65,19.13,0,11.57,2.05,16.32a2.24,2.24,0,0,1-1.94,1.19,4.08,4.08,0,0,1-2.43-1.08,4.66,4.66,0,0,1-1.67-2.16,50.22,50.22,0,0,0-.65-6.58q-6.37,8.1-12.2,8.09a12.46,12.46,0,0,1-10.79-5.29q-3.24-4.53-3.24-12a57.53,57.53,0,0,1,3.35-18.78q4.32-12.73,11.44-12.74a10.51,10.51,0,0,1,6.15,2.27q0.65,0.43,5.07,4.53,1.08-7.36,1.08-32.27a2.77,2.77,0,0,1,2.05-.76A5.17,5.17,0,0,1,325.78,374.93Zm-8.1,39.93a16.89,16.89,0,0,0-2.16-8.53q-2.59-4.53-7-4.53-5.4,0-8.64,11a52.74,52.74,0,0,0-2.59,15.65,20.34,20.34,0,0,0,1.51,8.2q2,4.53,6.15,4.53,6.69,0,10.15-10.36A48.32,48.32,0,0,0,317.69,414.86Z" transform="translate(-64.41 -88.7)" style="fill: #231f20;stroke: #000;stroke-miterlimit: 10"/>
      <path d="M362.26,446.7q0,1.51-2.37,1.51-2.59,0-3.13-2.16a36,36,0,0,1-.11-4.21,3.9,3.9,0,0,0-.32-1.73,21.67,21.67,0,0,1-13.06,4.42,18.13,18.13,0,0,1-9.39-2.7q-5.18-3-5.18-7.55t6.15-8.63q5.61-3.89,10.36-3.89H355.9a3.16,3.16,0,0,0,.65-2.27q0-7.23-1.19-10.9-1.94-6.15-7.66-6.15-4.11,0-7.56,5.18A16.58,16.58,0,0,0,337,416.7v1.19a0.76,0.76,0,0,1-.86.86,3.59,3.59,0,0,1-2.37-1.3,3.55,3.55,0,0,1-1.3-2.27,21.45,21.45,0,0,1,1.84-7.61,23.2,23.2,0,0,1,4-7A8.75,8.75,0,0,1,345,397.7a18.49,18.49,0,0,1,11.33,3.89q5.5,4.21,5.61,10.15Zm-5.72-17.16q0-4.31-6.69-4.32a22,22,0,0,0-9.28,1.83q-5.08,2.38-5.07,7.12a5,5,0,0,0,2.7,4.53,10,10,0,0,0,5.4,1.4,14.72,14.72,0,0,0,8.8-3A9,9,0,0,0,356.54,429.54Z" transform="translate(-64.41 -88.7)" style="fill: #231f20;stroke: #000;stroke-miterlimit: 10"/>
      <path d="M403,401.26q-0.9,4.75-1.69,9.5a48.67,48.67,0,0,0-1,9.5V454q0,7.23-4.37,11.5t-11.71,4.26a22.79,22.79,0,0,1-9-2.16q-5.72-2.37-7.88-5.94a4,4,0,0,1-.54-1.94q0-3.13,3-3.13a2.85,2.85,0,0,1,1.4.43q1.83,1.94,3.67,3.78a13.25,13.25,0,0,0,9.28,3.35q7.12,0,9.5-5,1.4-3.13,1.4-11.33a41.65,41.65,0,0,0-.43-4.32,18.21,18.21,0,0,1-.22-4.75,30.52,30.52,0,0,1-4.32,3.56,9.46,9.46,0,0,1-5.18,1.51q-7.34,0-11.12-5.72-3.35-5-3.35-12.63,0-14.57.43-24.61,0.43-3.45,3.78-3.45,4.1,0,3.67,1.4-2.05,5.61-2.05,25.15,0,15.11,8.59,15.11,5.26,0,8.37-8.09a33.93,33.93,0,0,0,2.25-12.63V406.12l0.27-4.64q0.16-2.81,3.51-2.59Q403.17,399.21,403,401.26Z" transform="translate(-64.41 -88.7)" style="fill: #231f20;stroke: #000;stroke-miterlimit: 10"/>
    </g>
    <path d="M68.26,426.21c120.83-12.56,242.38-.1,363.46-6.34,5.15-.27,5.18-8.31,0-8-121.08,6.24-242.63-6.22-363.46,6.34-5.09.53-5.15,8.57,0,8h0Z" transform="translate(-64.41 -88.7)" style="fill: #ec1e24"/>
    <g>
      <path d="M99.85,541.67a2,2,0,0,1-1.58-.66l-1.73-1.73a2,2,0,0,1-.66-1.58V506.94a2,2,0,0,1,.66-1.58l1.73-1.73a2,2,0,0,1,1.58-.66H106a2,2,0,0,1,1.58.66l1.73,1.73a2,2,0,0,1,.66,1.58v6a1.15,1.15,0,0,1-1.27,1.27h-2.34a1.15,1.15,0,0,1-1.27-1.27v-4.79l-1-1h-2.29l-1,1v28.32l1,1h2.29l1-1V525.88h-1.17a1.15,1.15,0,0,1-1.27-1.27v-1.83a1.15,1.15,0,0,1,1.27-1.27h4.79a1.15,1.15,0,0,1,1.27,1.27V537.7a2,2,0,0,1-.66,1.58L107.59,541a2,2,0,0,1-1.58.66H99.85Z" transform="translate(-64.41 -88.7)" style="fill: #231f20"/>
      <path d="M125.26,540.4a1.15,1.15,0,0,1-1.27,1.27h-9.63a1.15,1.15,0,0,1-1.27-1.27V504.24a1.15,1.15,0,0,1,1.27-1.27h9.52a1.15,1.15,0,0,1,1.27,1.27v1.63a1.15,1.15,0,0,1-1.27,1.27H118V520h5a1.15,1.15,0,0,1,1.27,1.27v1.63a1.15,1.15,0,0,1-1.27,1.27h-5V537.5h6a1.15,1.15,0,0,1,1.27,1.27v1.63Z" transform="translate(-64.41 -88.7)" style="fill: #231f20"/>
      <path d="M139.52,503a1.15,1.15,0,0,1,1.27,1.27v1.53a1.15,1.15,0,0,1-1.27,1.27h-3.36V540.4a1.15,1.15,0,0,1-1.27,1.27h-2.34a1.15,1.15,0,0,1-1.27-1.27V507h-3.36a1.15,1.15,0,0,1-1.27-1.27v-1.53a1.15,1.15,0,0,1,1.27-1.27h11.61Z" transform="translate(-64.41 -88.7)" style="fill: #231f20"/>
      <path d="M154.59,503a1.15,1.15,0,0,1,1.27,1.27v1.53a1.15,1.15,0,0,1-1.27,1.27h-3.36V540.4a1.15,1.15,0,0,1-1.27,1.27h-2.34a1.15,1.15,0,0,1-1.27-1.27V507H143a1.15,1.15,0,0,1-1.27-1.27v-1.53A1.15,1.15,0,0,1,143,503h11.61Z" transform="translate(-64.41 -88.7)" style="fill: #231f20"/>
      <path d="M162.89,540.4a1.15,1.15,0,0,1-1.27,1.27h-2.34A1.15,1.15,0,0,1,158,540.4V504.24a1.15,1.15,0,0,1,1.27-1.27h2.34a1.15,1.15,0,0,1,1.27,1.27V540.4Z" transform="translate(-64.41 -88.7)" style="fill: #231f20"/>
      <path d="M170.69,540.4a1.15,1.15,0,0,1-1.27,1.27h-1.88a1.15,1.15,0,0,1-1.27-1.27V504.24a1.15,1.15,0,0,1,1.27-1.27h2.85a1.27,1.27,0,0,1,1.43,1.12l5.35,25.72V504.24a1.15,1.15,0,0,1,1.27-1.27h1.88a1.15,1.15,0,0,1,1.27,1.27V540.4a1.15,1.15,0,0,1-1.27,1.27h-2.85a1.27,1.27,0,0,1-1.43-1.12l-5.35-25.31V540.4Z" transform="translate(-64.41 -88.7)" style="fill: #231f20"/>
      <path d="M188.76,541.67a2,2,0,0,1-1.58-.66l-1.73-1.73a2,2,0,0,1-.66-1.58V506.94a2,2,0,0,1,.66-1.58l1.73-1.73a2,2,0,0,1,1.58-.66h6.16a2,2,0,0,1,1.58.66l1.73,1.73a2,2,0,0,1,.66,1.58v6a1.15,1.15,0,0,1-1.27,1.27h-2.34a1.15,1.15,0,0,1-1.27-1.27v-4.79l-1-1H190.7l-1,1v28.32l1,1H193l1-1V525.88h-1.17a1.15,1.15,0,0,1-1.27-1.27v-1.83a1.15,1.15,0,0,1,1.27-1.27h4.79a1.15,1.15,0,0,1,1.27,1.27V537.7a2,2,0,0,1-.66,1.58L196.51,541a2,2,0,0,1-1.58.66h-6.16Z" transform="translate(-64.41 -88.7)" style="fill: #231f20"/>
      <path d="M225.43,512.9a1.15,1.15,0,0,1-1.27,1.27h-2.34a1.15,1.15,0,0,1-1.27-1.27v-4.84l-1-1h-1.78l-1,1V519l1,1h3.87a2,2,0,0,1,1.58.66l1.73,1.73a2,2,0,0,1,.66,1.58V537.7a2,2,0,0,1-.66,1.58L223.19,541a2,2,0,0,1-1.58.66h-5.91a2,2,0,0,1-1.58-.66l-1.73-1.73a2,2,0,0,1-.66-1.58v-5.91a1.15,1.15,0,0,1,1.27-1.27h2.34a1.15,1.15,0,0,1,1.27,1.27v4.79l1,1h2l1-1V525.17l-1-1h-3.87a2,2,0,0,1-1.58-.66l-1.73-1.73a2,2,0,0,1-.66-1.58V506.94a2,2,0,0,1,.66-1.58l1.73-1.73a2,2,0,0,1,1.58-.66h5.65a2,2,0,0,1,1.58.66l1.73,1.73a2,2,0,0,1,.66,1.58v6Z" transform="translate(-64.41 -88.7)" style="fill: #231f20"/>
      <path d="M228.49,504.24a1.15,1.15,0,0,1,1.27-1.27h2.34a1.15,1.15,0,0,1,1.27,1.27v15.89h5.14V504.24A1.15,1.15,0,0,1,239.8,503h2.34a1.15,1.15,0,0,1,1.27,1.27V540.4a1.15,1.15,0,0,1-1.27,1.27H239.8a1.15,1.15,0,0,1-1.27-1.27v-16h-5.14v16a1.15,1.15,0,0,1-1.27,1.27h-2.34a1.15,1.15,0,0,1-1.27-1.27V504.24Z" transform="translate(-64.41 -88.7)" style="fill: #231f20"/>
      <path d="M251.66,540.4a1.15,1.15,0,0,1-1.27,1.27H248a1.15,1.15,0,0,1-1.27-1.27V504.24A1.15,1.15,0,0,1,248,503h2.34a1.15,1.15,0,0,1,1.27,1.27V540.4Z" transform="translate(-64.41 -88.7)" style="fill: #231f20"/>
      <path d="M266.69,503a1.15,1.15,0,0,1,1.27,1.27v1.53a1.15,1.15,0,0,1-1.27,1.27h-3.36V540.4a1.15,1.15,0,0,1-1.27,1.27h-2.34a1.15,1.15,0,0,1-1.27-1.27V507h-3.36a1.15,1.15,0,0,1-1.27-1.27v-1.53a1.15,1.15,0,0,1,1.27-1.27h11.61Z" transform="translate(-64.41 -88.7)" style="fill: #231f20"/>
      <path d="M278.75,504.24A1.15,1.15,0,0,1,280,503h9.27a2,2,0,0,1,1.58.66l1.73,1.73a2,2,0,0,1,.66,1.58V537.7a2,2,0,0,1-.66,1.58L290.88,541a2,2,0,0,1-1.58.66H280a1.15,1.15,0,0,1-1.27-1.27V504.24Zm9.63,32.24V508.16l-1-1h-3.72V537.5h3.72Z" transform="translate(-64.41 -88.7)" style="fill: #231f20"/>
      <path d="M307,503a2,2,0,0,1,1.58.66l1.73,1.73a2,2,0,0,1,.66,1.58V537.7a2,2,0,0,1-.66,1.58L308.55,541a2,2,0,0,1-1.58.66H300.3a2,2,0,0,1-1.58-.66L297,539.28a2,2,0,0,1-.66-1.58V506.94a2,2,0,0,1,.66-1.58l1.73-1.73a2,2,0,0,1,1.58-.66H307Zm-4.74,4.18-1,1v28.32l1,1H305l1-1V508.16l-1-1h-2.8Z" transform="translate(-64.41 -88.7)" style="fill: #231f20"/>
      <path d="M318.58,540.4a1.15,1.15,0,0,1-1.27,1.27h-1.88a1.15,1.15,0,0,1-1.27-1.27V504.24a1.15,1.15,0,0,1,1.27-1.27h2.85a1.27,1.27,0,0,1,1.43,1.12L325,529.81V504.24a1.15,1.15,0,0,1,1.27-1.27h1.88a1.15,1.15,0,0,1,1.27,1.27V540.4a1.15,1.15,0,0,1-1.27,1.27h-2.85a1.28,1.28,0,0,1-1.43-1.12l-5.35-25.31V540.4Z" transform="translate(-64.41 -88.7)" style="fill: #231f20"/>
      <path d="M345,540.4a1.15,1.15,0,0,1-1.27,1.27h-9.63a1.15,1.15,0,0,1-1.27-1.27V504.24a1.15,1.15,0,0,1,1.27-1.27h9.52a1.15,1.15,0,0,1,1.27,1.27v1.63a1.15,1.15,0,0,1-1.27,1.27h-5.91V520h5a1.15,1.15,0,0,1,1.27,1.27v1.63a1.15,1.15,0,0,1-1.27,1.27h-5V537.5h6a1.15,1.15,0,0,1,1.27,1.27v1.63Z" transform="translate(-64.41 -88.7)" style="fill: #231f20"/>
      <path d="M368.9,537.5a1.15,1.15,0,0,1,1.27,1.27v1.63a1.15,1.15,0,0,1-1.27,1.27h-8.81a1.15,1.15,0,0,1-1.27-1.27V504.24a1.15,1.15,0,0,1,1.27-1.27h2.34a1.15,1.15,0,0,1,1.27,1.27V537.5h5.2Z" transform="translate(-64.41 -88.7)" style="fill: #231f20"/>
      <path d="M377.25,540.4a1.15,1.15,0,0,1-1.27,1.27h-2.34a1.15,1.15,0,0,1-1.27-1.27V504.24a1.15,1.15,0,0,1,1.27-1.27H376a1.15,1.15,0,0,1,1.27,1.27V540.4Z" transform="translate(-64.41 -88.7)" style="fill: #231f20"/>
      <path d="M392.58,541.67a1.26,1.26,0,0,1-1.37-1.12l-3.31-14.72-2.39,6.62v7.95a1.15,1.15,0,0,1-1.27,1.27h-2.34a1.15,1.15,0,0,1-1.27-1.27V504.24a1.15,1.15,0,0,1,1.27-1.27h2.34a1.15,1.15,0,0,1,1.27,1.27v19.36L391,504a1.34,1.34,0,0,1,1.43-1.07h2.29a1,1,0,0,1,1.07,1.43l-4.84,15.74,5.25,20.12a1,1,0,0,1-1.12,1.43h-2.5Z" transform="translate(-64.41 -88.7)" style="fill: #231f20"/>
      <path d="M410.81,540.4a1.15,1.15,0,0,1-1.27,1.27h-9.63a1.15,1.15,0,0,1-1.27-1.27V504.24a1.15,1.15,0,0,1,1.27-1.27h9.52a1.15,1.15,0,0,1,1.27,1.27v1.63a1.15,1.15,0,0,1-1.27,1.27h-5.91V520h5a1.15,1.15,0,0,1,1.27,1.27v1.63a1.15,1.15,0,0,1-1.27,1.27h-5V537.5h6a1.15,1.15,0,0,1,1.27,1.27v1.63Z" transform="translate(-64.41 -88.7)" style="fill: #231f20"/>
      <path d="M109.06,564.08a1.15,1.15,0,0,1,1.27,1.27v1.53a1.15,1.15,0,0,1-1.27,1.27H105.7v33.36a1.15,1.15,0,0,1-1.27,1.27h-2.34a1.15,1.15,0,0,1-1.27-1.27V568.15H97.45a1.15,1.15,0,0,1-1.27-1.27v-1.53a1.15,1.15,0,0,1,1.27-1.27h11.61Z" transform="translate(-64.41 -88.7)" style="fill: #231f20"/>
      <path d="M112.47,565.35a1.15,1.15,0,0,1,1.27-1.27h2.34a1.15,1.15,0,0,1,1.27,1.27v15.89h5.14V565.35a1.15,1.15,0,0,1,1.27-1.27h2.34a1.15,1.15,0,0,1,1.27,1.27v36.16a1.15,1.15,0,0,1-1.27,1.27h-2.34a1.15,1.15,0,0,1-1.27-1.27v-16h-5.14v16a1.15,1.15,0,0,1-1.27,1.27h-2.34a1.15,1.15,0,0,1-1.27-1.27V565.35Z" transform="translate(-64.41 -88.7)" style="fill: #231f20"/>
      <path d="M142.93,601.52a1.15,1.15,0,0,1-1.27,1.27H132a1.15,1.15,0,0,1-1.27-1.27V565.35a1.15,1.15,0,0,1,1.27-1.27h9.52a1.15,1.15,0,0,1,1.27,1.27V567a1.15,1.15,0,0,1-1.27,1.27h-5.91v12.83h5a1.15,1.15,0,0,1,1.27,1.27V584a1.15,1.15,0,0,1-1.27,1.27h-5v13.34h6a1.15,1.15,0,0,1,1.27,1.27v1.63Z" transform="translate(-64.41 -88.7)" style="fill: #231f20"/>
      <path d="M150.42,601.52a1.15,1.15,0,0,1-1.27,1.27H146.8a1.15,1.15,0,0,1-1.27-1.27V565.35a1.15,1.15,0,0,1,1.27-1.27h9.12a2,2,0,0,1,1.58.66l1.73,1.73a2,2,0,0,1,.66,1.58v14.26a2,2,0,0,1-.66,1.58l-2,2,2.8,15.48a1,1,0,0,1-1.17,1.38h-2.14a1.26,1.26,0,0,1-1.38-1.17l-2.8-15.33h-2.09v15.23ZM155,581.29V569.17l-1-1h-3.57v14.16H154Z" transform="translate(-64.41 -88.7)" style="fill: #231f20"/>
      <path d="M175.52,601.52a1.15,1.15,0,0,1-1.27,1.27h-9.63a1.15,1.15,0,0,1-1.27-1.27V565.35a1.15,1.15,0,0,1,1.27-1.27h9.52a1.15,1.15,0,0,1,1.27,1.27V567a1.15,1.15,0,0,1-1.27,1.27h-5.91v12.83h5a1.15,1.15,0,0,1,1.27,1.27V584a1.15,1.15,0,0,1-1.27,1.27h-5v13.34h6a1.15,1.15,0,0,1,1.27,1.27v1.63Z" transform="translate(-64.41 -88.7)" style="fill: #231f20"/>
      <path d="M181.74,564.08a1.15,1.15,0,0,1,1.27,1.27v3a2.82,2.82,0,0,1-.41,1.58l-2.55,4.63a1.59,1.59,0,0,1-1.53.87c-0.41,0-.41-0.61-0.05-1.48l1.73-4.23h-1a1.15,1.15,0,0,1-1.27-1.27v-3.06a1.15,1.15,0,0,1,1.27-1.27h2.55Z" transform="translate(-64.41 -88.7)" style="fill: #231f20"/>
      <path d="M199.36,574a1.15,1.15,0,0,1-1.27,1.27h-2.34a1.15,1.15,0,0,1-1.27-1.27v-4.84l-1-1h-1.78l-1,1v10.9l1,1h3.87a2,2,0,0,1,1.58.66l1.73,1.73a2,2,0,0,1,.66,1.58v13.75a2,2,0,0,1-.66,1.58l-1.73,1.73a2,2,0,0,1-1.58.66h-5.91a2,2,0,0,1-1.58-.66l-1.73-1.73a2,2,0,0,1-.66-1.58v-5.91a1.15,1.15,0,0,1,1.27-1.27h2.34a1.15,1.15,0,0,1,1.27,1.27v4.79l1,1h2l1-1V586.29l-1-1h-3.87a2,2,0,0,1-1.58-.66l-1.73-1.73a2,2,0,0,1-.66-1.58V568.05a2,2,0,0,1,.66-1.58l1.73-1.73a2,2,0,0,1,1.58-.66h5.65a2,2,0,0,1,1.58.66l1.73,1.73a2,2,0,0,1,.66,1.58v6Z" transform="translate(-64.41 -88.7)" style="fill: #231f20"/>
      <path d="M215,601.52a1.15,1.15,0,0,1-1.27,1.27h-1.88a1.15,1.15,0,0,1-1.27-1.27V565.35a1.15,1.15,0,0,1,1.27-1.27h2.85a1.27,1.27,0,0,1,1.43,1.12l5.35,25.72V565.35a1.15,1.15,0,0,1,1.27-1.27h1.88a1.15,1.15,0,0,1,1.27,1.27v36.16a1.15,1.15,0,0,1-1.27,1.27h-2.85a1.27,1.27,0,0,1-1.43-1.12L215,576.35v25.16Z" transform="translate(-64.41 -88.7)" style="fill: #231f20"/>
      <path d="M239.74,564.08a2,2,0,0,1,1.58.66l1.73,1.73a2,2,0,0,1,.66,1.58v30.76a2,2,0,0,1-.66,1.58l-1.73,1.73a2,2,0,0,1-1.58.66h-6.67a2,2,0,0,1-1.58-.66l-1.73-1.73a2,2,0,0,1-.66-1.58V568.05a2,2,0,0,1,.66-1.58l1.73-1.73a2,2,0,0,1,1.58-.66h6.67ZM235,568.26l-1,1v28.32l1,1h2.8l1-1V569.27l-1-1H235Z" transform="translate(-64.41 -88.7)" style="fill: #231f20"/>
      <path d="M266.74,564.08a1.15,1.15,0,0,1,1.27,1.27v1.53a1.15,1.15,0,0,1-1.27,1.27h-3.36v33.36a1.15,1.15,0,0,1-1.27,1.27h-2.34a1.15,1.15,0,0,1-1.27-1.27V568.15h-3.36a1.15,1.15,0,0,1-1.27-1.27v-1.53a1.15,1.15,0,0,1,1.27-1.27h11.61Z" transform="translate(-64.41 -88.7)" style="fill: #231f20"/>
      <path d="M280.43,564.08a2,2,0,0,1,1.58.66l1.73,1.73a2,2,0,0,1,.66,1.58v30.76a2,2,0,0,1-.66,1.58L282,602.13a2,2,0,0,1-1.58.66h-6.67a2,2,0,0,1-1.58-.66l-1.73-1.73a2,2,0,0,1-.66-1.58V568.05a2,2,0,0,1,.66-1.58l1.73-1.73a2,2,0,0,1,1.58-.66h6.67Zm-4.74,4.18-1,1v28.32l1,1h2.8l1-1V569.27l-1-1h-2.8Z" transform="translate(-64.41 -88.7)" style="fill: #231f20"/>
      <path d="M300.86,601.62a1.24,1.24,0,0,1-1.38,1.17h-2.39a1.24,1.24,0,0,1-1.37-1.17L292,572.43v29.08a1.15,1.15,0,0,1-1.27,1.27h-1.88a1.15,1.15,0,0,1-1.27-1.27V565.35a1.15,1.15,0,0,1,1.27-1.27h4.58a1.24,1.24,0,0,1,1.38,1.17l3.46,30.1,3.46-30.1a1.24,1.24,0,0,1,1.38-1.17h4.74a1.15,1.15,0,0,1,1.27,1.27v36.16a1.15,1.15,0,0,1-1.27,1.27H305.8a1.15,1.15,0,0,1-1.27-1.27V572.43Z" transform="translate(-64.41 -88.7)" style="fill: #231f20"/>
      <path d="M323,564.08a2,2,0,0,1,1.58.66l1.73,1.73a2,2,0,0,1,.66,1.58v30.76a2,2,0,0,1-.66,1.58l-1.73,1.73a2,2,0,0,1-1.58.66h-6.67a2,2,0,0,1-1.58-.66L313,600.4a2,2,0,0,1-.66-1.58V568.05a2,2,0,0,1,.66-1.58l1.73-1.73a2,2,0,0,1,1.58-.66H323Zm-4.74,4.18-1,1v28.32l1,1h2.8l1-1V569.27l-1-1h-2.8Z" transform="translate(-64.41 -88.7)" style="fill: #231f20"/>
      <path d="M335.08,601.52a1.15,1.15,0,0,1-1.27,1.27h-2.34a1.15,1.15,0,0,1-1.27-1.27V565.35a1.15,1.15,0,0,1,1.27-1.27h9.12a2,2,0,0,1,1.58.66l1.73,1.73a2,2,0,0,1,.66,1.58v14.26a2,2,0,0,1-.66,1.58l-2,2,2.8,15.48a1,1,0,0,1-1.17,1.38h-2.14a1.26,1.26,0,0,1-1.37-1.17l-2.8-15.33h-2.09v15.23Zm4.58-20.22V569.17l-1-1h-3.57v14.16h3.57Z" transform="translate(-64.41 -88.7)" style="fill: #231f20"/>
      <path d="M352.9,601.52a1.15,1.15,0,0,1-1.27,1.27h-2.34a1.15,1.15,0,0,1-1.27-1.27V565.35a1.15,1.15,0,0,1,1.27-1.27h9.12a2,2,0,0,1,1.58.66l1.73,1.73a2,2,0,0,1,.66,1.58v14.26a2,2,0,0,1-.66,1.58l-2,2,2.8,15.48a1,1,0,0,1-1.17,1.38h-2.14a1.26,1.26,0,0,1-1.37-1.17L355,586.29H352.9v15.23Zm4.58-20.22V569.17l-1-1H352.9v14.16h3.57Z" transform="translate(-64.41 -88.7)" style="fill: #231f20"/>
      <path d="M376.13,564.08a2,2,0,0,1,1.58.66l1.73,1.73a2,2,0,0,1,.66,1.58v30.76a2,2,0,0,1-.66,1.58l-1.73,1.73a2,2,0,0,1-1.58.66h-6.67a2,2,0,0,1-1.58-.66l-1.73-1.73a2,2,0,0,1-.66-1.58V568.05a2,2,0,0,1,.66-1.58l1.73-1.73a2,2,0,0,1,1.58-.66h6.67Zm-4.74,4.18-1,1v28.32l1,1h2.8l1-1V569.27l-1-1h-2.8Z" transform="translate(-64.41 -88.7)" style="fill: #231f20"/>
      <path d="M409,564.08a1.11,1.11,0,0,1,1.22,1.38l-4.63,36.16a1.22,1.22,0,0,1-1.33,1.17h-4.23a1.18,1.18,0,0,1-1.33-1.22l-2.55-31.37-2.55,31.38a1.18,1.18,0,0,1-1.32,1.22h-4.43a1.22,1.22,0,0,1-1.32-1.17l-4.63-36.16a1.11,1.11,0,0,1,1.22-1.37h2.5A1.18,1.18,0,0,1,387,565.3l2.8,32.24,3.31-32.24a1.18,1.18,0,0,1,1.32-1.22h3.67a1.18,1.18,0,0,1,1.32,1.22l3.31,32.24,2.8-32.24a1.18,1.18,0,0,1,1.32-1.22H409Z" transform="translate(-64.41 -88.7)" style="fill: #231f20"/>
    </g>
    <g>
      <path d="M166.32,309.64a9.68,9.68,0,1,0,9.68,9.68A9.7,9.7,0,0,0,166.32,309.64Zm0,12.93a3.25,3.25,0,1,1,3.25-3.25A3.25,3.25,0,0,1,166.32,322.57Zm194.81-42a9.68,9.68,0,1,0,9.68,9.68A9.7,9.7,0,0,0,361.13,280.55Zm0,12.93a3.25,3.25,0,1,1,3.25-3.25A3.25,3.25,0,0,1,361.13,293.48ZM267.27,118.6a11,11,0,1,0-11-11A11,11,0,0,0,267.27,118.6Zm0-15.54a4.55,4.55,0,1,1-4.56,4.55A4.57,4.57,0,0,1,267.27,103.05Zm18.85,33.43a6.37,6.37,0,1,0-6.37-6.37A6.38,6.38,0,0,0,286.11,136.48Zm-105.87,7a6.37,6.37,0,1,0-6.37-6.37A6.38,6.38,0,0,0,180.25,143.47Zm184.54,77.2a6.37,6.37,0,1,0,6.37,6.37A6.38,6.38,0,0,0,364.78,220.67ZM156.3,161.36a6.37,6.37,0,1,0-6.37,6.37A6.38,6.38,0,0,0,156.3,161.36Zm228.63,86.91a6.37,6.37,0,1,0,6.37,6.37A6.38,6.38,0,0,0,384.93,248.27Zm-54.72,67.84a6.37,6.37,0,1,0,6.37,6.37A6.38,6.38,0,0,0,330.22,316.11ZM188.64,326.38a6.37,6.37,0,1,0,6.37,6.37A6.38,6.38,0,0,0,188.64,326.38Zm207.43-177.3L351.6,193.56A24.5,24.5,0,0,1,317,158.92l38.49-38.49a3.22,3.22,0,0,0-4.55-4.55L312.4,154.36a31.46,31.46,0,0,0-2.57,3,99.44,99.44,0,1,0,34,48.3,30.65,30.65,0,0,0,12.29-7.5l44.47-44.47A3.22,3.22,0,0,0,396.07,149.09ZM232,145.31q1.36,1.38,2.93,2.88c1.52,1.45,3.47,3.31,4.61,4.67-2.44,1-8.14,1.91-13.73,1.91-6,0-10.47,4.51-14.45,8.5a44.73,44.73,0,0,1-5.12,4.65c-1.14.82-2.05,1.41-2.77,1.88-4.14,2.69-4.38,4.09-3.55,9.21a3.25,3.25,0,0,1-.55,2.42,1.59,1.59,0,0,1-.59.53,2.38,2.38,0,0,1-.89-1.09,8.47,8.47,0,0,0-6.42-4.7c-4.34-.61-8.72,2.09-11.14,4.58-2.92,3-3.82,7.47-2.09,10.42a5.65,5.65,0,0,0,6.63,2.44,2.84,2.84,0,0,1,2.61.39,2.36,2.36,0,0,1,.8,2.05,9.65,9.65,0,0,0,3.15,8.23,7.64,7.64,0,0,0,7.1,1.25c1.78-.5,3.3-1.08,4.7-1.61,2.58-1,4.28-1.64,6.37-1.29a11,11,0,0,0,7-1.43c1.8-.88,2.16-1,3.2-0.43a14.56,14.56,0,0,1,3.19,2.8c2.27,2.39,5.36,5.69,10.61,5.4,2.68-.14,5.27,3.44,7.58,6.58a39.87,39.87,0,0,0,3,3.81c2.34,2.47,5,2.8,7.34,3.1a11.79,11.79,0,0,1,7.15,2.81c1.73,1.45,2,2.38-1.81,7.07a18.76,18.76,0,0,0-2.41,3.42c-1.31,2.67-.91,5.58-0.56,8.15,0.58,4.24.47,5.25-2.06,6.18-1,.35-1.92.64-2.86,0.93-4.34,1.34-9.73,3-10.76,9.68-0.3,1.94-1.46,3-2.79,4.28s-2.67,2.51-3,4.58l-0.14,1.06c-0.25,2.11-.34,2.52-1.92,3A10.44,10.44,0,0,0,224,280a14.09,14.09,0,0,0,.8,12.16,5.16,5.16,0,0,1,.55,3.85,0.58,0.58,0,0,1-.56.38,1.65,1.65,0,0,1-1.51-.49c-2.34-1.9-4.16-7.5-4.16-11.06,0-3.8-2.54-6.6-4.57-8.85-1.39-1.53-2.83-3.12-2.83-4.33a13.11,13.11,0,0,1,.88-4.43,28.48,28.48,0,0,0,1.62-9.88c0-5.37-4.5-8.57-8.11-11.14-2.43-1.73-4.95-3.52-5.07-5.16-0.33-4.34-3-6.83-5.1-8.83s-3.38-3.31-3.43-5.79c-0.06-3.27,1.36-5,2.86-6.78,1.31-1.57,2.93-3.51,2.44-6.21-0.73-4-4.46-4.76-6.69-5.19-1.57-.31-2.61-0.55-2.93-1.11-3.14-5.6-7.29-6.11-10.62-6s-4.13-.29-4.43-2.59a24.18,24.18,0,0,0-3-8.22A92.28,92.28,0,0,1,232,145.31Zm18.25,182.22a91.45,91.45,0,0,1-29.92-5.09c1.52-5.55,3.23-6.11,5.77-6.87a22.65,22.65,0,0,0,2.65-.93,7.77,7.77,0,0,0,3.75-4.19c0.62-1.3.78-1.5,1.34-1.66a1.64,1.64,0,0,1,1.91.39,2.44,2.44,0,0,1-.2,2.74l-0.91,1.34c-1.18,1.7-2.4,3.46-1.34,5.53s3.16,2.2,7,2.28c7.38,0.13,15.55-.05,19.43-4.49,0.91-1,3.3-3.37,5.57-2.36,7.8,3.48,11.73,3.33,14.91,3.19a12.72,12.72,0,0,1,3.55.18c1.1,0.26,2,.69,2.26,2.68A91.4,91.4,0,0,1,250.21,327.53Zm41.71-10.11a8.85,8.85,0,0,0-6.76-6.09,18.5,18.5,0,0,0-5.25-.33c-2.74.11-5.61,0.23-12-2.64-4.3-1.93-9.18-.43-13,4-2,2.28-9.08,2.38-13.48,2.31a8.79,8.79,0,0,0-.45-9.25,8,8,0,0,0-8.86-2.82,8.31,8.31,0,0,0-5.42,5.09,9.72,9.72,0,0,1-.57,1.08,15,15,0,0,1-1.87.64c-3.94,1.17-7.65,3-10,10.8a91.78,91.78,0,0,1-47.9-122.41,10.82,10.82,0,0,1,.38,1.64c0.74,5.77,4.48,8.56,11.14,8.2,1.9-.09,3.15,0,4.67,2.68,1.79,3.19,5.1,3.84,7.3,4.27,0.34,0.07.77,0.15,1.14,0.24-0.19.24-.41,0.51-0.6,0.73-1.77,2.13-4.45,5.35-4.35,11,0.09,5.31,3.19,8.23,5.45,10.36,1.88,1.78,3,2.87,3.1,4.64,0.36,4.64,4.29,7.44,7.77,9.91,3.26,2.32,5.4,4,5.4,5.89a22.21,22.21,0,0,1-1.31,7.89,19,19,0,0,0-1.2,6.42c0,3.7,2.39,6.33,4.5,8.65,1.49,1.65,2.91,3.2,2.91,4.52,0,4.46,2,12.38,6.53,16a8.18,8.18,0,0,0,5.26,2,7.77,7.77,0,0,0,1.62-.17,7,7,0,0,0,5.13-4c1.44-3.18.62-7.17-.84-9.71a7.6,7.6,0,0,1-.4-6.56,4.32,4.32,0,0,1,2.29-2.62c5.68-1.7,6.19-6.07,6.47-8.41l0-.55a9.79,9.79,0,0,1,1.12-1.16,13.36,13.36,0,0,0,4.74-8c0.39-2.51,1.85-3.15,6.28-4.51,1-.33,2.12-0.65,3.2-1.06,7.62-2.81,6.74-9.25,6.2-13.1-0.24-1.73-.48-3.53,0-4.45a17.32,17.32,0,0,1,1.62-2.18c2.44-3,8.15-10,.94-16.06a18.1,18.1,0,0,0-10.48-4.27c-2-.25-2.77-0.39-3.46-1.12a34.08,34.08,0,0,1-2.5-3.19c-2.94-4-7-9.57-13.08-9.21-2.13.15-3.5-1.16-5.64-3.41a19.65,19.65,0,0,0-4.8-4c-4-2.16-7.07-.66-9.09.33-1.37.67-2.12,1-3.13,0.85-3.81-.63-6.68.47-9.71,1.63-1.23.47-2.58,1-4.14,1.43a1.36,1.36,0,0,1-1.31-.06,3.6,3.6,0,0,1-.78-2.8,8.75,8.75,0,0,0-3.12-7.45,9.22,9.22,0,0,0-7.72-1.79,4.09,4.09,0,0,1,1.09-2c1.66-1.71,4.16-2.9,5.62-2.69a2.13,2.13,0,0,1,1.63,1.35c2.36,4.41,6,5,8.62,4.15,3.76-1.27,6.16-5.69,5.4-10.4-0.11-.67-0.22-1.34-0.27-1.79,0.27-.19.61-0.39,1-0.66,0.79-.51,1.77-1.15,3-2a49.17,49.17,0,0,0,5.93-5.34c3.39-3.4,6.59-6.6,9.89-6.6,1.72,0,16.9-.15,20.13-5.38a4.72,4.72,0,0,0,.19-4.67c-1-2.09-3.5-4.51-6.17-7.07a92.55,92.55,0,0,1,10.29-.61,91.49,91.49,0,0,1,23.85,3.18A8.61,8.61,0,0,0,272,154c0.84,3.68,4.34,6.19,8.69,6.25,5.25,0.06,6.82,1.14,6.92,1.7l0.39,2.26a31.28,31.28,0,0,0,4.21,12.38c0.66,1.14-.93,4.12-2.09,6.29a28.07,28.07,0,0,0-2.31,5.11c-1.21,4.08-4,13.66,3.92,19a7.63,7.63,0,0,1,3.34,4.25,17.35,17.35,0,0,0,3.49,5.68c5.5,5.93,13,4.48,17.52,3.6l1.23-.24a1.69,1.69,0,0,1,1.54.55c1.9,1.65,3.83,6.46,3.58,13.1-0.18,4.44-2,8.38-3.82,12.19s-3.49,7.4-3.21,11.14l0.1,1.27c0.32,3.67,1,11.3-2,15-2.87,3.54-2.93,8.07-.15,11a8.26,8.26,0,0,0,6.1,2.46c2.47,0,5.44-.91,8.74-3.3,0.17-.12.36-0.28,0.53-0.42A92.38,92.38,0,0,1,291.92,317.42ZM338.31,262c-5.49,8.2-10.3,13.92-13.91,16.53-3.42,2.47-5.73,2.31-6.38,1.63-0.49-.53-0.3-1.56.48-2.52,4.66-5.76,3.84-15.15,3.44-19.66l-0.09-1.16c-0.15-2.06,1.13-4.78,2.61-7.93,2-4.19,4.2-8.93,4.42-14.68,0.3-7.87-1.91-14.85-5.79-18.21a8.14,8.14,0,0,0-6.91-2l-1.31.25c-4.82.93-8.74,1.4-11.57-1.65a11.21,11.21,0,0,1-2.28-3.79,13.76,13.76,0,0,0-5.69-7.11c-3.35-2.25-3-6.37-1.34-11.87a23.66,23.66,0,0,1,1.82-3.89c2-3.7,4.43-8.31,2-12.54a25.11,25.11,0,0,1-3.44-10.23L294,160.74c-1.25-6.85-10.24-6.95-13.18-7-1.46,0-2.35-.64-2.49-1.24s0.63-2.12,3-3.58a92,92,0,0,1,25.15,13.91,30.9,30.9,0,0,0,27.87,44.31,31.22,31.22,0,0,0,3.23-.18,90.41,90.41,0,0,1,4.72,28.53A91.59,91.59,0,0,1,338.31,262Zm42-116.69L360,165.53a3.22,3.22,0,0,0,4.55,4.55l20.27-20.27A3.22,3.22,0,0,0,380.3,145.27Zm8.17-23.37a3.22,3.22,0,0,0-4.55,0l-28.36,28.36a3.22,3.22,0,1,0,4.55,4.55l28.36-28.36A3.22,3.22,0,0,0,388.48,121.89Zm-46.89,27.45a3.22,3.22,0,0,0,4.55,0l48.39-48.39A3.22,3.22,0,1,0,390,96.39l-48.39,48.39A3.22,3.22,0,0,0,341.59,149.34Zm51.28-31.68a3.22,3.22,0,0,0,4.55,0l11.31-11.32a3.22,3.22,0,0,0-4.55-4.55L392.86,113.1A3.22,3.22,0,0,0,392.87,117.66Zm-14.37-21.6a3.21,3.21,0,0,0,2.28-.95l0.91-.91a3.22,3.22,0,1,0-4.56-4.55l-0.91.91A3.22,3.22,0,0,0,378.49,96.06Zm32.75,18.26-5.48,5.49a3.22,3.22,0,0,0,4.57,4.54l5.48-5.49A3.22,3.22,0,1,0,411.24,114.32Zm-3.69,23.29-3.1,3.1a3.22,3.22,0,1,0,4.55,4.55l3.1-3.1A3.22,3.22,0,1,0,407.55,137.61Zm-9.89-9.72-9.77,9.78a3.22,3.22,0,0,0,2.28,5.49,3.19,3.19,0,0,0,2.28-.94l9.77-9.79A3.22,3.22,0,1,0,397.66,127.89Zm21.92-36.95a3.22,3.22,0,0,0-4.55,0l-1.67,1.67a3.22,3.22,0,0,0,4.55,4.55l1.67-1.67A3.22,3.22,0,0,0,419.58,90.95Zm-59,23a3.19,3.19,0,0,0,2.28-.94l8.35-8.35a3.22,3.22,0,1,0-4.55-4.55l-8.35,8.35A3.22,3.22,0,0,0,360.61,113.93Z" transform="translate(-64.41 -88.7)"/>
      <path d="M320.81,175.53a108.49,108.49,0,0,0,10.86,14c2.19,2.39,5.75.91,6.72-1.77,2.72-7.52,7.59-13.93,10.77-21.23,2-4.7-4.88-8.8-6.94-4.06-3.46,8-8.61,14.94-11.58,23.15l6.72-1.77a95.62,95.62,0,0,1-9.6-12.39c-2.81-4.32-9.78-.29-6.94,4.06h0Z" transform="translate(-64.41 -88.7)" style="fill: #ec1e24"/>
    </g>
  </g>
</svg>
